<svg id="Layer_1" data-name="Layer 1" xmlns="http://www.w3.org/2000/svg" viewBox="0 0 400 300"><path d="M180.23,137.5s-.28,6,.88,9.93a3,3,0,0,0,3.76,2,6.65,6.65,0,0,0,5-5.21l1.59-5.31a5.39,5.39,0,0,0-2.59-5.66C185.4,131,180.23,133.83,180.23,137.5Z" fill="#f4a28c"/><polygon points="191.19 139.91 195.02 159.21 184.24 160.56 185.77 145.97 191.19 139.91" fill="#f4a28c"/><path d="M180.25,141.29l-1.59,2.37a1,1,0,0,0,.66,1.49l2.31.34Z" fill="#f4a28c"/><path d="M185.3,149.15a7.07,7.07,0,0,0,3.43-2.23s0,3.61-3.83,7.31Z" fill="#ce8172" opacity="0.31"/><rect x="80.59" y="169.47" width="26.22" height="3.54" transform="translate(-36.8 26.07) rotate(-13.27)" fill="#24285b"/><path d="M174.38,163.45s-23.12,8.6-26.26,24-20.68,39.81-45.45-7.84l-8.14,3.14s22.56,76.48,62.37,39.18S174.38,163.45,174.38,163.45Z" fill="#f4a28c"/><path d="M102.67,179.57s-2.83-8.84-7.72-11.43a.89.89,0,0,0-1.27,1l.85,4.31s-6.38,4.18,0,9.3Z" fill="#f4a28c"/><path d="M177.79,161.7s-29.88,7.44-34.69,36.09l25.06,14Z" fill="#6bb3ff"/><path d="M177.79,161.7s-29.88,7.44-34.69,36.09l25.06,14Z" fill="#fff" opacity="0.46"/><ellipse cx="200.04" cy="263.42" rx="121.72" ry="11.49" fill="#e6e6e6" opacity="0.45"/><path d="M215.2,160.06s-25-9.71-48,7.95S174,248,174,248l43.15,1.44S273.75,197.65,215.2,160.06Z" fill="#6bb3ff"/><path d="M179.05,129.44c-3.37,1.61-2.68,6.72,1,7.11a8,8,0,0,0,1.55,0c5.32-.44,3.58,3.45,7.1,6.09s4,4.93,4,4.93,3.32-2.28,1.26-8.84-.88-10.19-7.15-10.92A14.54,14.54,0,0,0,179.05,129.44Z" fill="#24285b"/><path d="M205,163.45s-19.66,17.43-11,37.85c13.09,30.84,1.47,33.54-25.21,34.32l7.16,17.16,60.77-19.33-3.94-25Z" opacity="0.08"/><path d="M180.45,245.8c16.56.56,20.83-.68,36.14-7,9.28-3.86,20.31-6.59,28.74-3.1,17.87,7.39,3.62,36.42-42.21,29.4l-42.32-1.91s-16.24,0-19.11-5.83c-3.5-7.11,3.83-14.49,37.65-11.55Z" fill="#24285b"/><rect x="177.17" y="201.32" width="26.88" height="37.38" transform="translate(-62.66 76.51) rotate(-19.56)" fill="#ffd200"/><rect x="179.92" y="200.9" width="10.13" height="5.63" transform="translate(-57.53 73.68) rotate(-19.56)" fill="#24285b"/><path d="M211.53,259.45s-15.76,2.13-12,5.78,13.12.92,13.12.92Z" fill="#6bb3ff"/><path d="M184.58,264.12l3.24-4.88s10,6.79,9,9.82C194.94,275.12,184.58,264.12,184.58,264.12Z" fill="#6bb3ff"/><path d="M203,172.11a11.46,11.46,0,0,1,15.31-10.69c8,2.87,18.13,8.55,24.8,19.72,12.54,21,34.6,77-44.11,61.11l.72-8.2s30.67,3.24,33.58-10.57C235.79,211.59,203,198,203,172.11Z" fill="#f4a28c"/><path d="M281.54,251.76s-7.92-2.16-9.64-9.53c0,0,12.27-2.48,12.62,10.18Z" fill="#6bb3ff" opacity="0.58"/><path d="M282.51,251s-5.53-8.75-.66-16.93c0,0,9.33,5.93,5.18,16.95Z" fill="#6bb3ff" opacity="0.73"/><path d="M283.93,251s2.93-9.23,11.77-11c0,0,1.65,6-5.73,11Z" fill="#6bb3ff"/><polygon points="278.19 250.78 279.8 261.76 289.91 261.8 291.4 250.83 278.19 250.78" fill="#24285b"/><polygon points="80.54 172.53 77.21 175.38 81.35 175.97 80.54 172.53" fill="#ffd200"/><path d="M215.36,202.27s-24.18-32.8-6.85-41.53,36.26,17,39.19,26.38C247.7,187.12,237.79,201.1,215.36,202.27Z" fill="#6bb3ff"/><path d="M215.36,202.27s-24.18-32.8-6.85-41.53,36.26,17,39.19,26.38C247.7,187.12,237.79,201.1,215.36,202.27Z" fill="#fff" opacity="0.46"/><path d="M199.7,234.05s-3.89-7.7-8.95-6.72-2.54,13.1,8.23,14.92Z" fill="#f4a28c"/><path d="M186.42,141.3s0-2.31,1.7-2.2,1.83,3.45-.52,3.85Z" fill="#f4a28c"/><circle cx="303.03" cy="54" r="31.83" fill="#ffd200"/><circle cx="310.2" cy="49.26" r="16.26" fill="#fff" opacity="0.46"/><circle cx="315.66" cy="46.89" r="8.89" fill="#fff" opacity="0.46"/><rect x="284.47" y="79.7" width="37.11" height="28.96" fill="#24285b"/><rect x="293.93" y="108.67" width="17.79" height="11.62" fill="#24285b"/><rect x="293.93" y="108.67" width="17.79" height="11.62" fill="#fff" opacity="0.75"/><path d="M303,127.76S306.7,164,275.62,157.4s-26.41-63.89-59.43-63.22-30.3,26.11-30.3,26.11" fill="none" stroke="#e6e6e6" stroke-linecap="round" stroke-linejoin="round" stroke-width="2" stroke-dasharray="2 10"/><path d="M133.12,112.35c7.73-5.44,12.64-13.5,12.64-22.51,0-16.38-16.21-29.67-36.21-29.67s-36.2,13.29-36.2,29.67,16.21,29.67,36.2,29.67a42.52,42.52,0,0,0,17.29-3.59c3.18,6,9.56,12.3,22.27,11.86C149.11,127.78,136.7,124,133.12,112.35Z" fill="#e6e6e6"/><circle cx="93.31" cy="89.03" r="4.17" fill="#c9c9c9"/><circle cx="109.61" cy="89.03" r="4.17" fill="#c9c9c9"/><circle cx="124.95" cy="89.03" r="4.17" fill="#c9c9c9"/></svg>