<?xml version="1.0" encoding="utf-8"?>
<!-- Generator: Adobe Illustrator 21.1.0, SVG Export Plug-In . SVG Version: 6.00 Build 0)  -->
<svg version="1.1" id="Слой_1" xmlns="http://www.w3.org/2000/svg" xmlns:xlink="http://www.w3.org/1999/xlink" x="0px" y="0px"
	 viewBox="0 0 316 174" style="enable-background:new 0 0 316 174;" xml:space="preserve">
<style type="text/css">
	.st0{opacity:0.7;}
	.st1{fill:#384966;}
	.st2{fill:#3A75ED;}
	.st3{opacity:0.4;enable-background:new    ;}
	.st4{fill:#F9F7EF;fill-opacity:0.8;}
	.st5{fill-opacity:0.2;}
	.st6{fill-opacity:0.1;}
	.st7{fill:#FFFFFF;}
	.st8{fill:#6B3EE5;}
</style>
<g id="Слой_1_1_">
	<g id="arrow">
		<g class="st0">
			<path class="st1" d="M158.7,103.2c-0.2,0.2-0.5,0.3-0.8,0.3s-0.6-0.1-0.8-0.3c-0.4-0.4-0.4-1.1,0-1.6l14-14l-14-14
				c-0.4-0.4-0.4-1.1,0-1.6s1.1-0.4,1.6,0l14.8,14.8c0.4,0.4,0.4,1.1,0,1.6L158.7,103.2z"/>
		</g>
		<g>
			<path class="st1" d="M145.4,103.2c-0.2,0.2-0.5,0.3-0.8,0.3s-0.6-0.1-0.8-0.3c-0.4-0.4-0.4-1.1,0-1.6l14-14l-14-14
				c-0.4-0.4-0.4-1.1,0-1.6s1.1-0.4,1.6,0l14.8,14.8c0.4,0.4,0.4,1.1,0,1.6L145.4,103.2z"/>
		</g>
	</g>
	<path class="st2" d="M257.9,20.6h-60.5c-5.2,0-9.5,4.3-9.5,9.5v41.6v3V145c0,5.2,4.3,9.5,9.5,9.5h86.1c5.2,0,9.5-4.3,9.5-9.5V74.7
		v-3V56.1L257.9,20.6z"/>
	<path class="st3" d="M257.9,20.6l-3.6,32.8c0,5.2,4.3,9.5,9.5,9.5l29.2-6.8L257.9,20.6z"/>
	<path class="st4" d="M258,20.6v25.9c0,5.2,4.3,9.5,9.5,9.5H293L258,20.6z"/>
	<rect x="187.8" y="120.7" class="st5" width="105.2" height="3"/>
	<path class="st6" d="M187.8,123.7V145c0,5.2,4.3,9.5,9.5,9.5h86.1c5.2,0,9.5-4.3,9.5-9.5v-21.3H187.8z"/>
	<g>
		<path class="st7" d="M258.3,74.4v-8c0-0.4-0.2-0.7-0.5-1c-0.3-0.2-0.7-0.3-1.1-0.2l-24,7.7c-0.5,0.2-0.8,0.6-0.8,1.1v8l0,0v15.6
			c-1.3-0.9-2.9-1.4-4.6-1.4c-1.8,0-3.5,0.5-4.8,1.5c-1.4,1.1-2.2,2.5-2.2,4s0.8,3,2.2,4c1.3,1,3,1.5,4.8,1.5s3.5-0.5,4.8-1.5
			c1.4-1.1,2.2-2.5,2.2-4V82.9L256,76v13.8c-1.3-0.9-2.9-1.4-4.6-1.4c-1.8,0-3.5,0.5-4.8,1.5c-1.4,1.1-2.2,2.5-2.2,4s0.8,3,2.2,4
			c1.3,1,3,1.5,4.8,1.5s3.5-0.5,4.8-1.5c1.4-1.1,2.2-2.5,2.2-4L258.3,74.4L258.3,74.4z M227.2,104.8c-2.5,0-4.6-1.4-4.6-3.1
			s2.1-3.1,4.6-3.1s4.6,1.4,4.6,3.1S229.7,104.8,227.2,104.8z M234.2,80.5v-5.6l21.7-6.9v5.6L234.2,80.5z M251.3,97.1
			c-2.5,0-4.6-1.4-4.6-3.1s2.1-3.1,4.6-3.1s4.6,1.4,4.6,3.1C255.9,95.8,253.7,97.1,251.3,97.1z"/>
	</g>
	<g>
		<path class="st7" d="M212,143.2l-0.9,2.2c-0.2,0.4-0.5,0.6-0.9,0.6H209c-0.5,0-0.8-0.4-0.8-0.8c0-0.1,0-0.2,0.1-0.3l4.9-11.7
			c0.2-0.4,0.5-0.6,0.9-0.6h1.4c0.4,0,0.8,0.3,0.9,0.6l4.9,11.7c0,0.1,0.1,0.2,0.1,0.3c0,0.4-0.3,0.8-0.8,0.8h-1.4
			c-0.4,0-0.8-0.3-0.9-0.6l-0.9-2.2H212z M213.1,140.3h3l-1.5-3.8L213.1,140.3z"/>
		<path class="st7" d="M231.6,133.4c0-0.5,0.4-0.9,0.9-0.9h1.3c0.5,0,0.9,0.4,0.9,0.9v7.1c0,4.1-2.6,5.8-5.5,5.8c-3.5,0-5.9-2-5.9-6
			v-6.9c0-0.5,0.4-0.9,0.9-0.9h1.3c0.5,0,0.9,0.4,0.9,0.9v6.3c0,2.1,0.6,3.7,2.8,3.7c1.9,0,2.4-1.4,2.4-3.5L231.6,133.4L231.6,133.4
			z"/>
		<path class="st7" d="M242.2,132.5c5.4,0,7.6,3.1,7.6,6.7c0,3.8-2.6,6.9-7.8,6.9c-0.6,0-1.9,0-3.2,0c-0.5,0-0.9-0.4-0.9-0.9v-11.7
			c0-0.5,0.4-0.9,0.9-0.9C240,132.5,241.6,132.5,242.2,132.5z M241.1,143.2c0.4,0,0.7,0,1.1,0c2.7,0,4.4-1.4,4.4-4
			c0-2.5-1.8-3.8-4.4-3.8c-0.3,0-0.8,0-1.1,0.1V143.2z"/>
		<path class="st7" d="M255.6,145.2c0,0.5-0.4,0.9-0.9,0.9h-1.3c-0.5,0-0.9-0.4-0.9-0.9v-11.8c0-0.5,0.4-0.9,0.9-0.9h1.3
			c0.5,0,0.9,0.4,0.9,0.9V145.2z"/>
		<path class="st7" d="M265.5,132.3c4.1,0,7.2,2.7,7.2,7c0,4.1-3.1,7-7.2,7s-7.2-2.7-7.2-7C258.4,135.4,261.2,132.3,265.5,132.3z
			 M265.5,143.4c2.6,0,3.9-1.8,3.9-4.1c0-2.5-1.7-4.1-3.9-4.1c-2.2,0-3.9,1.6-3.9,4.1C261.6,141.6,263.4,143.4,265.5,143.4z"/>
	</g>
</g>
<g id="Слой_2">
	<path class="st8" d="M94,20.6H33.5c-5.2,0-9.5,4.3-9.5,9.5v41.6v3V145c0,5.2,4.3,9.5,9.5,9.5h86.1c5.2,0,9.5-4.3,9.5-9.5V74.7v-3
		V56.1L94,20.6z"/>
	<path class="st3" d="M94,20.6l-3.6,32.8c0,5.2,4.3,9.5,9.5,9.5l29.2-6.8L94,20.6z"/>
	<path class="st4" d="M94.1,20.6v25.9c0,5.2,4.3,9.5,9.5,9.5h25.5L94.1,20.6z"/>
	<rect x="23.9" y="120.7" class="st5" width="105.2" height="3"/>
	<path class="st6" d="M23.9,123.7V145c0,5.2,4.3,9.5,9.5,9.5h86.1c5.2,0,9.5-4.3,9.5-9.5v-21.3C128.9,123.7,23.9,123.7,23.9,123.7z"
		/>
	<g>
		<path class="st7" d="M52.3,141.5l3-8.3c0.1-0.4,0.5-0.6,0.9-0.6h1.2c0.5,0,0.9,0.4,0.9,0.9c0,0.1,0,0.2-0.1,0.3l-4.6,11.7
			c-0.2,0.4-0.5,0.6-0.9,0.6h-1c-0.4,0-0.8-0.3-0.9-0.6L46,133.7c0-0.1-0.1-0.2-0.1-0.3c0-0.5,0.4-0.9,0.9-0.9h1.4
			c0.4,0,0.8,0.3,0.9,0.6L52.3,141.5z"/>
		<path class="st7" d="M63.4,145.2c0,0.5-0.4,0.9-0.9,0.9h-1.3c-0.5,0-0.9-0.4-0.9-0.9v-11.8c0-0.5,0.4-0.9,0.9-0.9h1.3
			c0.5,0,0.9,0.4,0.9,0.9V145.2z"/>
		<path class="st7" d="M71.4,132.5c5.4,0,7.6,3.1,7.6,6.7c0,3.8-2.6,6.9-7.8,6.9c-0.6,0-1.9,0-3.2,0c-0.5,0-0.9-0.4-0.9-0.9v-11.7
			c0-0.5,0.4-0.9,0.9-0.9C69.1,132.5,70.7,132.5,71.4,132.5z M70.2,143.2c0.4,0,0.7,0,1.1,0c2.7,0,4.4-1.4,4.4-4
			c0-2.5-1.8-3.8-4.4-3.8c-0.3,0-0.8,0-1.1,0.1V143.2z"/>
		<path class="st7" d="M89.7,145.2c0,0.5-0.4,0.9-0.9,0.9h-6.4c-0.5,0-0.9-0.4-0.9-0.9v-11.8c0-0.5,0.4-0.9,0.9-0.9h6.2
			c0.5,0,0.9,0.4,0.9,0.9v1.1c0,0.5-0.4,0.9-0.9,0.9h-4v2.4h3.5c0.5,0,0.9,0.4,0.9,0.9v1.1c0,0.5-0.4,0.9-0.9,0.9h-3.5v2.5h4.2
			c0.5,0,0.9,0.4,0.9,0.9C89.7,144.1,89.7,145.2,89.7,145.2z"/>
		<path class="st7" d="M98.8,132.3c4.1,0,7.2,2.7,7.2,7c0,4.1-3.1,7-7.2,7s-7.2-2.7-7.2-7C91.7,135.4,94.5,132.3,98.8,132.3z
			 M98.8,143.4c2.6,0,3.9-1.8,3.9-4.1c0-2.5-1.7-4.1-3.9-4.1c-2.2,0-3.9,1.6-3.9,4.1C94.9,141.6,96.7,143.4,98.8,143.4z"/>
	</g>
	<g>
		<path class="st7" d="M72.9,95.3c0.1,0.1,0.3,0.2,0.6,0.2c0.2,0,0.4-0.1,0.5-0.1L84.1,89c0.4-0.3,0.6-0.7,0.6-1.1
			c0-0.6-0.5-0.9-0.7-1.1l-9.8-6.3c-0.4-0.3-0.9-0.3-1.3,0c-0.4,0.2-0.6,0.6-0.6,1.1v12.6C72.2,94.6,72.5,95.1,72.9,95.3z
			 M74.7,91.9v-8l6.2,4L74.7,91.9z"/>
		<path class="st7" d="M102.1,67H51.9c-0.7,0-1.3,0.5-1.3,1.3v39.4c0,0.7,0.5,1.3,1.3,1.3h50.2c0.7,0,1.3-0.5,1.3-1.3V68.2
			C103.4,67.5,102.8,67,102.1,67z M100.8,99.1v7.3h-6.4v-7.3H100.8z M100.8,89.2v7.3h-6.4v-7.3H100.8z M100.8,79.3v7.3h-6.4v-7.3
			H100.8z M100.8,69.5v7.3h-6.4v-7.3H100.8z M91.9,69.5v36.8H62.2V69.5H91.9z M59.6,99.1v7.3h-6.4v-7.3H59.6z M59.6,89.2v7.3h-6.4
			v-7.3H59.6z M59.6,79.3v7.3h-6.4v-7.3H59.6z M59.6,69.5v7.3h-6.4v-7.3C53.2,69.5,59.6,69.5,59.6,69.5z"/>
	</g>
</g>
</svg>
